<?xml version="1.0" encoding="UTF-8"?>
<svg xmlns="http://www.w3.org/2000/svg" version="1.1" xmlns:xlink="http://www.w3.org/1999/xlink" viewBox="0 0 1080 1920">
  <defs>
    <style>
      .cls-1 {
        stroke: #726141;
      }

      .cls-1, .cls-2, .cls-3, .cls-4, .cls-5, .cls-6, .cls-7, .cls-8, .cls-9, .cls-10, .cls-11, .cls-12, .cls-13, .cls-14, .cls-15, .cls-16, .cls-17, .cls-18, .cls-19, .cls-20, .cls-21, .cls-22, .cls-23, .cls-24, .cls-25 {
        stroke-miterlimit: 10;
      }

      .cls-1, .cls-5, .cls-21 {
        stroke-width: 5px;
      }

      .cls-1, .cls-26, .cls-27 {
        fill: #fff;
      }

      .cls-2 {
        stroke: #727272;
        stroke-width: 2px;
      }

      .cls-2, .cls-3, .cls-4, .cls-5, .cls-6, .cls-7, .cls-8, .cls-9, .cls-10, .cls-14, .cls-15, .cls-16, .cls-19, .cls-21, .cls-22, .cls-23, .cls-24, .cls-25 {
        fill: none;
      }

      .cls-2, .cls-24 {
        stroke-linecap: round;
      }

      .cls-3, .cls-4, .cls-8, .cls-9, .cls-10, .cls-11, .cls-12, .cls-13, .cls-14, .cls-15, .cls-18, .cls-19, .cls-20, .cls-22, .cls-23, .cls-24, .cls-25 {
        stroke-width: 3px;
      }

      .cls-3, .cls-12 {
        stroke: #8063ff;
      }

      .cls-28 {
        fill: #000;
      }

      .cls-28, .cls-29, .cls-30, .cls-31, .cls-32, .cls-33, .cls-34, .cls-35, .cls-36, .cls-37, .cls-38, .cls-27, .cls-39, .cls-40, .cls-41 {
        stroke-width: 0px;
      }

      .cls-4 {
        stroke: #dd9cff;
      }

      .cls-5 {
        stroke: #986eff;
      }

      .cls-6, .cls-10 {
        stroke: #fff;
      }

      .cls-6, .cls-16, .cls-17 {
        stroke-width: 4px;
      }

      .cls-29 {
        fill: #f6f0ff;
      }

      .cls-7, .cls-11, .cls-14, .cls-18, .cls-20 {
        stroke: #803b00;
      }

      .cls-8, .cls-13 {
        stroke: #ffd800;
      }

      .cls-9 {
        stroke: #0fbab1;
      }

      .cls-11 {
        fill: #e980ff;
      }

      .cls-12, .cls-42 {
        fill: #c9c2ff;
      }

      .cls-13 {
        fill: #ffd8e8;
      }

      .cls-30 {
        fill: #99f8ff;
        opacity: .61;
      }

      .cls-15 {
        stroke: #cbb6ff;
      }

      .cls-31 {
        fill: #e5e5e5;
      }

      .cls-16 {
        stroke: #757575;
      }

      .cls-32 {
        fill: #8cf8ff;
      }

      .cls-17 {
        fill: #ff9a55;
        stroke: #7445ff;
      }

      .cls-33 {
        fill: #ff7878;
      }

      .cls-43 {
        clip-path: url(#clippath-4);
      }

      .cls-18, .cls-37 {
        fill: #ff97ff;
      }

      .cls-19 {
        stroke: #552b09;
      }

      .cls-44, .cls-40 {
        fill: #ffaeae;
      }

      .cls-34 {
        fill: #bc681d;
      }

      .cls-35 {
        fill: #938ebc;
      }

      .cls-36 {
        fill: #ffcaca;
      }

      .cls-45 {
        clip-path: url(#clippath);
      }

      .cls-38 {
        fill: #e9feff;
      }

      .cls-20 {
        fill: #ff974a;
      }

      .cls-21, .cls-25 {
        stroke: #000;
      }

      .cls-39 {
        fill: #8c7eff;
      }

      .cls-46 {
        display: none;
      }

      .cls-22 {
        stroke: #f6dcff;
      }

      .cls-23 {
        stroke: #e60005;
      }

      .cls-24 {
        stroke: #666;
      }

      .cls-41 {
        fill: #777;
      }
    </style>
    <clipPath id="clippath">
      <polygon class="cls-12" points="458.96 1220.57 446.14 1234.87 527.38 1341.6 576.91 1341.6 655.61 1231.3 644.83 1220.57 651.3 1200.66 632.76 1187.13 489.04 1184.83 450.45 1207.81 458.96 1220.57"/>
    </clipPath>
    <clipPath id="clippath-4">
      <polygon class="cls-40" points="528.95 986.67 551.55 1018.36 574.44 986.67 551.55 973.55 528.95 986.67"/>
    </clipPath>
  </defs>
  <g id="Pierna_1" data-name="Pierna 1" class="cls-46">
    <polyline class="cls-23" points="453.29 1250.3 459.51 1242.42 458.57 1235.89 466.24 1222.78"/>
    <polyline class="cls-23" points="448.52 1248.97 458.18 1246.24 461.25 1240.4 475.15 1234.28"/>
    <polyline class="cls-23" points="444.95 1257.5 454.61 1254.77 457.68 1248.93 471.58 1242.81"/>
    <polyline class="cls-23" points="449.85 1262.61 459.52 1259.88 462.59 1254.05 476.49 1247.92"/>
    <polyline class="cls-9" points="461.6 1262.05 467.82 1254.16 466.88 1247.64 474.55 1234.53"/>
    <polyline class="cls-9" points="456.83 1260.72 466.49 1257.98 469.56 1252.15 483.46 1246.03"/>
    <polyline class="cls-9" points="453.26 1269.24 462.92 1266.51 465.99 1260.67 479.89 1254.55"/>
    <polyline class="cls-9" points="458.16 1274.36 467.83 1271.63 470.9 1265.79 484.8 1259.67"/>
    <polyline class="cls-23" points="500.6 1303.24 506.83 1295.36 505.89 1288.83 513.56 1275.72"/>
    <polyline class="cls-23" points="495.83 1301.91 505.5 1299.18 508.57 1293.34 522.47 1287.22"/>
    <polyline class="cls-23" points="492.26 1310.44 501.93 1307.7 505 1301.87 518.9 1295.75"/>
    <polyline class="cls-23" points="497.17 1315.55 506.84 1312.82 509.9 1306.98 523.8 1300.86"/>
    <polyline class="cls-9" points="508.91 1314.99 515.14 1307.1 514.2 1300.58 521.87 1287.47"/>
    <polyline class="cls-9" points="504.14 1313.66 513.81 1310.92 516.88 1305.09 530.78 1298.97"/>
    <polyline class="cls-9" points="500.57 1322.18 510.24 1319.45 513.31 1313.61 527.21 1307.49"/>
    <polyline class="cls-9" points="505.48 1327.3 515.14 1324.57 518.21 1318.73 532.11 1312.61"/>
    <polyline class="cls-23" points="472.39 1286.74 478.62 1278.86 477.68 1272.33 485.35 1259.22"/>
    <polyline class="cls-23" points="467.62 1285.41 477.29 1282.68 480.36 1276.84 494.26 1270.72"/>
    <polyline class="cls-23" points="464.05 1293.94 473.72 1291.2 476.79 1285.37 490.69 1279.25"/>
    <polyline class="cls-23" points="468.96 1299.05 478.63 1296.32 481.69 1290.48 495.59 1284.36"/>
    <polyline class="cls-9" points="480.7 1298.49 486.93 1290.6 485.99 1284.08 493.66 1270.97"/>
    <polyline class="cls-9" points="475.93 1297.16 485.6 1294.42 488.67 1288.59 502.57 1282.46"/>
    <polyline class="cls-9" points="472.36 1305.68 482.03 1302.95 485.1 1297.11 499 1290.99"/>
    <polyline class="cls-9" points="477.27 1310.8 486.94 1308.06 490 1302.23 503.9 1296.11"/>
    <path class="cls-11" d="M406.36,1397.26s-22.98,7.15-32.68,27.06c-9.7,19.91-7.15,28.09-7.15,28.09,0,0-6.64,5.11-6.64,6.64s23.23,9.19,23.23,9.19c0,0,38.04-1.53,41.62,0,3.57,1.53,43.91-7.15,52.6-9.7s12.68-12.26,11.7-16.85,0-8.85,0-8.85v-12.6s10.26-8.68,6.68-12.77-5.25-5.62-5.25-5.62l18.71-41.36-36.09,2.55-17.28,31.66-49.44,2.55Z"/>
    <path class="cls-20" d="M450.45,1235.38l-7.91-10.21s-21.88,28.6-25.45,35.23-24.51,59.74-24.51,59.74v27.06s-.51,30.13,0,34.21,13.79,15.83,13.79,15.83l52.6,4.6,14.13-38.81,32.85-2.04,14.47-36.12-69.96-89.5Z"/>
    <polyline class="cls-14" points="392.57 1347.21 404.15 1327.3 446.14 1331.89 469.07 1360.49 483.98 1354.36 469.07 1309.94 450.45 1266.79 442.54 1225.17"/>
    <polyline class="cls-14" points="404.15 1321.17 419.13 1316.57 446.14 1321.17 451.5 1338.58 473.74 1323.85"/>
    <line class="cls-14" x1="454.75" y1="1342.64" x2="474.99" y2="1327.58"/>
    <ellipse class="cls-14" cx="450.5" cy="1312.23" rx="4.37" ry="6.38"/>
    <ellipse class="cls-14" cx="413.77" cy="1312.23" rx="4.34" ry="6.38"/>
    <polygon class="cls-14" points="401.64 1357.43 450.5 1360.49 456.37 1368.66 456.37 1376.32 442.54 1392.15 401.64 1387.04 397.68 1374.79 401.64 1357.43"/>
    <polyline class="cls-14" points="446.14 1331.89 450.5 1348.74 461 1360.49 456.37 1376.32"/>
    <path class="cls-11" d="M486.02,1401.85l-5.51,9.19v7.66l-15.64,9.7s6.14,16.34,4.2,19.91c-1.94,3.57-12.7,8.68-12.7,8.68l-38.27-3.57-51.57-1.02"/>
    <path class="cls-11" d="M395.64,1405.43s5.27,0,8.51,4.6c3.24,4.6,22.13,3.57,27.24,10.21s19.12,36.22,19.12,36.22"/>
    <polyline class="cls-11" points="477.26 1362.78 474.24 1383.47 468.15 1383.47"/>
    <polyline class="cls-14" points="469.07 1460.62 469.07 1448.32 469.07 1440.15 489.04 1432.83"/>
    <ellipse class="cls-14" cx="455.75" cy="1436.05" rx="5.25" ry="5.12"/>
    <path class="cls-14" d="M490.47,1401.85l-19.91,10.98-7,6.89-9.7-8.17-16.7-.77-30.79-13.53,11.74,11.74s23.32,5.62,32.34,10.72,14.43,8.68,14.43,8.68"/>
    <polyline class="cls-8" points="439.78 1234.46 417.9 1267.95 397.68 1322.19"/>
    <polyline class="cls-8" points="446.96 1271.13 468.15 1322.19 455.54 1331.89"/>
    <polyline class="cls-8" points="452.27 1249.82 453.57 1266.79 480.81 1331.89 489.04 1357.43 501.34 1357.43 513.09 1327.58"/>
    <polygon class="cls-13" points="404.15 1360.49 448.42 1362.78 452.27 1369.17 450.5 1376.32 442.54 1388.06 404.57 1383.47 400.36 1373.13 404.15 1360.49"/>
    <polygon class="cls-13" points="396.91 1360.49 396.91 1346.19 406.36 1331.89 443.04 1335.47 406.36 1338.58 396.91 1360.49"/>
    <polyline class="cls-37" points="393.56 1405.43 378.6 1422.79 369.6 1448.83 440.43 1450.87"/>
    <polygon class="cls-37" points="469.07 1388.06 462.06 1405.43 462.06 1412.83 479.06 1400.45 490.69 1394.19 500.83 1367.13 483.98 1367.13 480.51 1389.98 469.07 1388.06"/>
  </g>
  <g id="Pierna_2" data-name="Pierna 2" class="cls-46">
    <polyline class="cls-23" points="644.27 1255.85 638.05 1247.97 638.99 1241.44 631.32 1228.33"/>
    <polyline class="cls-23" points="649.04 1254.52 639.38 1251.79 636.31 1245.95 622.41 1239.83"/>
    <polyline class="cls-23" points="652.61 1263.05 642.95 1260.31 639.88 1254.48 625.98 1248.35"/>
    <polyline class="cls-23" points="647.71 1268.16 638.04 1265.43 634.97 1259.59 621.07 1253.47"/>
    <polyline class="cls-9" points="635.96 1267.59 629.74 1259.71 630.68 1253.18 623.01 1240.07"/>
    <polyline class="cls-9" points="640.73 1266.26 631.07 1263.53 628 1257.69 614.1 1251.57"/>
    <polyline class="cls-9" points="644.3 1274.79 634.64 1272.06 631.57 1266.22 617.67 1260.1"/>
    <polyline class="cls-9" points="639.4 1279.91 629.73 1277.17 626.66 1271.34 612.76 1265.21"/>
    <polyline class="cls-23" points="596.96 1308.79 590.73 1300.91 591.67 1294.38 584 1281.27"/>
    <polyline class="cls-23" points="601.73 1307.46 592.06 1304.73 588.99 1298.89 575.09 1292.77"/>
    <polyline class="cls-23" points="605.3 1315.98 595.63 1313.25 592.56 1307.42 578.66 1301.29"/>
    <polyline class="cls-23" points="600.39 1321.1 590.72 1318.37 587.66 1312.53 573.76 1306.41"/>
    <polyline class="cls-9" points="588.65 1320.53 582.42 1312.65 583.36 1306.12 575.69 1293.01"/>
    <polyline class="cls-9" points="593.42 1319.2 583.75 1316.47 580.68 1310.63 566.78 1304.51"/>
    <polyline class="cls-9" points="596.99 1327.73 587.32 1325 584.25 1319.16 570.35 1313.04"/>
    <polyline class="cls-9" points="592.08 1332.85 582.42 1330.11 579.35 1324.28 565.45 1318.15"/>
    <polyline class="cls-23" points="625.17 1292.29 618.94 1284.41 619.88 1277.88 612.21 1264.77"/>
    <polyline class="cls-23" points="629.94 1290.96 620.27 1288.23 617.2 1282.39 603.3 1276.27"/>
    <polyline class="cls-23" points="633.51 1299.48 623.84 1296.75 620.77 1290.91 606.87 1284.79"/>
    <polyline class="cls-23" points="628.6 1304.6 618.93 1301.87 615.87 1296.03 601.97 1289.91"/>
    <polyline class="cls-9" points="616.86 1304.03 610.63 1296.15 611.57 1289.62 603.9 1276.51"/>
    <polyline class="cls-9" points="621.63 1302.7 611.96 1299.97 608.89 1294.13 594.99 1288.01"/>
    <polyline class="cls-9" points="625.2 1311.23 615.53 1308.49 612.46 1302.66 598.56 1296.54"/>
    <polyline class="cls-9" points="620.29 1316.34 610.62 1313.61 607.56 1307.77 593.66 1301.65"/>
    <path class="cls-11" d="M691.2,1402.8s22.98,7.15,32.68,27.06c9.7,19.91,7.15,28.09,7.15,28.09,0,0,6.64,5.11,6.64,6.64s-23.23,9.19-23.23,9.19c0,0-38.04-1.53-41.62,0s-43.91-7.15-52.6-9.7c-8.68-2.55-12.68-12.26-11.7-16.85s0-8.85,0-8.85v-12.6s-10.26-8.68-6.68-12.77c3.57-4.09,5.25-5.62,5.25-5.62l-18.71-41.36,36.09,2.55,17.28,31.66,49.44,2.55Z"/>
    <path class="cls-20" d="M647.11,1240.93l7.91-10.21s21.88,28.6,25.45,35.23,24.51,59.74,24.51,59.74v27.06s.51,30.13,0,34.21c-.51,4.09-13.79,15.83-13.79,15.83l-52.6,4.6-14.13-38.81-32.85-2.04-14.47-36.12,69.96-89.5Z"/>
    <polyline class="cls-14" points="704.99 1352.76 693.41 1332.84 651.42 1337.44 628.49 1366.04 613.58 1359.91 628.49 1315.48 647.11 1272.33 655.02 1230.72"/>
    <polyline class="cls-14" points="693.41 1326.72 678.43 1322.12 651.42 1326.72 646.06 1344.13 623.82 1329.39"/>
    <line class="cls-14" x1="642.81" y1="1348.18" x2="622.57" y2="1333.12"/>
    <ellipse class="cls-14" cx="647.06" cy="1317.78" rx="4.37" ry="6.38"/>
    <ellipse class="cls-14" cx="683.79" cy="1317.78" rx="4.34" ry="6.38"/>
    <polygon class="cls-14" points="695.92 1362.97 647.06 1366.04 641.19 1374.21 641.19 1381.87 655.02 1397.7 695.92 1392.59 699.88 1380.33 695.92 1362.97"/>
    <polyline class="cls-14" points="651.42 1337.44 647.06 1354.29 636.56 1366.04 641.19 1381.87"/>
    <path class="cls-11" d="M611.54,1407.4l5.51,9.19v7.66s15.64,9.7,15.64,9.7c0,0-6.14,16.34-4.2,19.91,1.94,3.57,12.7,8.68,12.7,8.68l38.27-3.57,51.57-1.02"/>
    <path class="cls-11" d="M701.92,1410.97s-5.27,0-8.51,4.6c-3.24,4.6-22.13,3.57-27.24,10.21s-19.12,36.22-19.12,36.22"/>
    <polyline class="cls-11" points="620.3 1368.33 623.32 1389.01 629.41 1389.01"/>
    <polyline class="cls-14" points="628.49 1466.17 628.49 1453.87 628.49 1445.7 608.52 1438.38"/>
    <ellipse class="cls-14" cx="641.81" cy="1441.6" rx="5.25" ry="5.12"/>
    <path class="cls-14" d="M607.09,1407.4l19.91,10.98,7,6.89,9.7-8.17,16.7-.77,30.79-13.53-11.74,11.74s-23.32,5.62-32.34,10.72-14.43,8.68-14.43,8.68"/>
    <polyline class="cls-8" points="657.78 1240 679.66 1273.5 699.88 1327.74"/>
    <polyline class="cls-8" points="650.6 1276.67 629.41 1327.74 642.02 1337.44"/>
    <polyline class="cls-8" points="645.29 1255.37 643.99 1272.33 616.75 1337.44 608.52 1362.97 596.22 1362.97 584.47 1333.12"/>
    <polygon class="cls-13" points="693.41 1366.04 649.14 1368.33 645.29 1374.72 647.06 1381.87 655.02 1393.61 692.99 1389.01 697.2 1378.67 693.41 1366.04"/>
    <polygon class="cls-13" points="700.64 1366.04 700.64 1351.74 691.2 1337.44 654.52 1341.01 691.2 1344.13 700.64 1366.04"/>
    <polyline class="cls-37" points="704 1410.97 718.96 1428.33 727.96 1454.38 657.13 1456.42"/>
    <polygon class="cls-37" points="628.49 1393.61 635.5 1410.97 635.5 1418.38 618.5 1405.99 606.87 1399.74 596.73 1372.67 613.58 1372.67 617.05 1395.53 628.49 1393.61"/>
  </g>
  <g id="Brazo_1" data-name="Brazo 1">
    <polyline class="cls-23" points="432.5 1100.32 441.24 1095.37 442.84 1088.97 454.89 1079.72"/>
    <polyline class="cls-23" points="428.59 1097.29 438.57 1098.4 443.62 1094.16 458.8 1093.74"/>
    <polyline class="cls-23" points="422.07 1103.83 432.05 1104.95 437.09 1100.7 452.27 1100.28"/>
    <polyline class="cls-23" points="424.68 1110.42 434.66 1111.54 439.7 1107.29 454.89 1106.87"/>
    <polyline class="cls-9" points="435.77 1114.33 444.51 1109.38 446.1 1102.98 458.15 1093.74"/>
    <polyline class="cls-9" points="431.85 1111.3 441.84 1112.42 446.88 1108.17 462.06 1107.75"/>
    <polyline class="cls-9" points="425.33 1117.85 435.31 1118.96 440.36 1114.72 455.54 1114.29"/>
    <polyline class="cls-9" points="427.94 1124.44 437.92 1125.55 442.97 1121.31 458.15 1120.88"/>
    <path class="cls-11" d="M324.15,1260.15l-9.45,21.45s-7.15,9.7-5.87,16.34,7.58,7.66,7.58,7.66l3.91-2.04s5.87,8.43,7.66,8.43h10.47l14.3-17.11s2.55,2.55,5.11,2.55,6.38-1.79,7.91-3.57,5.87-7.66,5.62-13.28-8.59-33.26-8.59-33.26l-21.28,1.86-17.36,10.98Z"/>
    <path class="cls-20" d="M426.43,1200.35c.11-2.81.47-5.62,1.07-8.4,1.2-5.52,3.87-10.75,6.35-15.92,3.26-8.98,5.55-18.37,8.26-27.56v-45.86l-63.32,53.11-5.11,8.68-11.23-5.62-2.55,4.6-1.53-12.26h-4.6l-30.64,32.17-16.34,76.06,8.68,11.26,19.4-6.13s14.81-17.87,23.49-19.4c8.68-1.53,11.74,28.6,11.74,28.6h3.57l49.02-60.26-4.09-3.57,7.15-8.68s.23-.29.66-.82Z"/>
    <path class="cls-11" d="M442.11,1080.15s-34.21,17.36-41.36,21.96c-7.15,4.6-27.06,37.28-27.06,37.28h8.17l-3.06,16.34,34.21,3.06,29.11-15.83v-62.81Z"/>
    <line class="cls-14" x1="328.73" y1="1266.43" x2="320.57" y2="1302.28"/>
    <path class="cls-14" d="M345.2,1253.62s4.99,39.21,6.27,40.23,6.38,3.57,6.38,3.57"/>
    <line class="cls-14" x1="314.7" y1="1281.6" x2="325.72" y2="1279.65"/>
    <path class="cls-14" d="M327.47,1278.28s8.43-2.72,14.55,2.34,9.5,10.17,9.5,10.17l-.91,6.64s-19.86-10.31-21.88-13.07l-2.02-2.76"/>
    <line class="cls-14" x1="316.23" y1="1280.62" x2="323.5" y2="1289.4"/>
    <polyline class="cls-14" points="347.14 1268.2 351.53 1260.4 363.72 1260.4 367.04 1266.43 369.37 1268.2"/>
    <polyline class="cls-14" points="347.9 1273.68 357.85 1271.13 369.47 1271.13"/>
    <line class="cls-14" x1="381.85" y1="1139.38" x2="400.74" y2="1102.11"/>
    <polyline class="cls-14" points="434.61 1083.98 423.98 1120.74 403.81 1127.64 387.8 1127.64"/>
    <path class="cls-14" d="M379.39,1152.52c6.04-.37,31.82-2.41,31.82-2.41l26.3-15.83,4.6-51.57"/>
    <ellipse class="cls-14" cx="391.3" cy="1139.38" rx="3.57" ry="6.38"/>
    <polygon class="cls-14" points="412.74 1160.57 431.23 1181.54 430.07 1184.16 404.57 1158.79 412.74 1160.57"/>
    <path class="cls-14" d="M364.74,1166.7l16.77,25.16,12.04,8.81,3.31,9.56s7.09,8.05,7.79,8.05,9.92-2.26,9.92-2.26l6.86-3.61-4.97-2.68s-26.69-36.64-35.43-37.57c-8.74-.93-16.3-5.45-16.3-5.45Z"/>
    <polyline class="cls-14" points="371.39 1169.79 386.7 1158.79 396.66 1164.29 425.77 1192.49 426.6 1197.81"/>
    <path class="cls-14" d="M359.89,1163.38l-7.15,16.85s-22.76,40.85-24.02,45.7-4.75,19.91-3.01,25.28,6.68,14.06,6.68,14.06"/>
    <polyline class="cls-14" points="393.09 1249.82 381.85 1228.49 359.89 1215.98 342.57 1214.33 337.43 1228.74 327.89 1229.35"/>
    <polyline class="cls-14" points="396.91 1245.85 385.45 1223.08 363.04 1209.73 345.36 1207.96 340.11 1223.35 330.38 1224"/>
    <polyline class="cls-14" points="393.56 1200.67 391.3 1211.64 363.65 1248.57"/>
    <polyline class="cls-14" points="307.5 1256.05 312.4 1248.57 324.65 1247.31 325.72 1232.07 320.21 1241.51 310.48 1242.16 323.5 1218.28 325.24 1197.81 345.2 1169 356.32 1169"/>
    <polyline class="cls-14" points="323.13 1183.3 325.72 1188.15 334.7 1184.16"/>
    <polyline class="cls-8" points="345.2 1218.28 340.04 1232.07 330.38 1232.07 328.91 1248.57 334.7 1257.17"/>
    <line class="cls-8" x1="361.94" y1="1169" x2="337.06" y2="1218.28"/>
    <polygon class="cls-8" points="404.57 1104.66 394.87 1123.72 403.13 1123.72 419.81 1116.23 428.66 1090.02 404.57 1104.66"/>
    <polyline class="cls-8" points="410.75 1145.77 433.09 1130.53 437.17 1087.64 428.66 1123.72 396.91 1133"/>
    <polyline class="cls-8" points="417.9 1161.85 437.17 1149.6 431.23 1178.3"/>
    <polyline class="cls-8" points="331.91 1268.2 330.38 1273.68 339.11 1273.68 345.2 1277.55"/>
    <line class="cls-8" x1="323.13" y1="1271.13" x2="319.87" y2="1277.55"/>
    <polyline class="cls-8" points="347.9 1253.62 354.79 1249.82 359.89 1251.72 361.94 1257.17"/>
    <polyline class="cls-8" points="327.89 1287.49 325.24 1302.28 328.91 1308.91 334.7 1308.91"/>
    <polyline class="cls-8" points="374.45 1173.77 385.09 1190.79 399 1200.67 400.74 1210.19 407.89 1212.53 414.7 1212.53"/>
    <polyline class="cls-4" points="378.6 1169 387.72 1163.38 404.57 1181.6 422.12 1195.55 417.04 1206.11"/>
    <polyline class="cls-4" points="399 1135.3 396.91 1147.21 406.87 1145.77 426.6 1129.17"/>
    <polygon class="cls-4" points="347.9 1203.38 363.65 1173.77 376.91 1193.15 391.3 1200.67 383.04 1218.28 364.74 1206.11 347.9 1203.38"/>
    <polyline class="cls-4" points="394.87 1212.53 387.8 1221.77 396.91 1241.17 414.7 1220.4 401.64 1221.43 396.91 1214.33"/>
  </g>
  <g id="Brazo_2" data-name="Brazo 2">
    <polyline class="cls-23" points="678.49 1107.87 669.75 1102.92 668.15 1096.52 656.1 1087.27"/>
    <polyline class="cls-23" points="682.4 1104.84 672.42 1105.95 667.37 1101.71 652.19 1101.29"/>
    <polyline class="cls-23" points="688.92 1111.38 678.94 1112.5 673.9 1108.25 658.71 1107.83"/>
    <polyline class="cls-23" points="686.31 1117.97 676.33 1119.09 671.28 1114.84 656.1 1114.42"/>
    <polyline class="cls-9" points="675.22 1121.88 666.48 1116.93 664.89 1110.53 652.84 1101.29"/>
    <polyline class="cls-9" points="679.14 1118.85 669.15 1119.97 664.11 1115.72 648.93 1115.3"/>
    <polyline class="cls-9" points="685.66 1125.4 675.68 1126.51 670.63 1122.27 655.45 1121.84"/>
    <polyline class="cls-9" points="683.05 1131.99 673.07 1133.1 668.02 1128.86 652.84 1128.43"/>
    <path class="cls-11" d="M786.84,1267.7l9.45,21.45s7.15,9.7,5.87,16.34c-1.28,6.64-7.58,7.66-7.58,7.66l-3.91-2.04s-5.87,8.43-7.66,8.43h-10.47s-14.3-17.11-14.3-17.11c0,0-2.55,2.55-5.11,2.55-2.55,0-6.38-1.79-7.91-3.57-1.53-1.79-5.87-7.66-5.62-13.28.26-5.62,8.59-33.26,8.59-33.26l21.28,1.86,17.36,10.98Z"/>
    <path class="cls-20" d="M684.56,1207.9c-.11-2.81-.47-5.62-1.07-8.4-1.2-5.52-3.87-10.75-6.35-15.92-3.26-8.98-5.55-18.37-8.26-27.56v-45.86s63.32,53.11,63.32,53.11l5.11,8.68,11.23-5.62,2.55,4.6,1.53-12.26h4.6s30.64,32.17,30.64,32.17l16.34,76.06-8.68,11.26-19.4-6.13s-14.81-17.87-23.49-19.4-11.74,28.6-11.74,28.6h-3.57s-49.02-60.26-49.02-60.26l4.09-3.57-7.15-8.68s-.23-.29-.66-.82Z"/>
    <path class="cls-11" d="M668.88,1087.7s34.21,17.36,41.36,21.96,27.06,37.28,27.06,37.28h-8.17s3.06,16.34,3.06,16.34l-34.21,3.06-29.11-15.83v-62.81Z"/>
    <line class="cls-14" x1="782.26" y1="1273.98" x2="790.41" y2="1309.83"/>
    <path class="cls-14" d="M765.79,1261.17s-4.99,39.21-6.27,40.23c-1.28,1.02-6.38,3.57-6.38,3.57"/>
    <line class="cls-14" x1="796.29" y1="1289.15" x2="785.27" y2="1287.2"/>
    <path class="cls-14" d="M783.52,1285.83s-8.43-2.72-14.55,2.34c-6.13,5.06-9.5,10.17-9.5,10.17l.91,6.64s19.86-10.31,21.88-13.07l2.02-2.76"/>
    <line class="cls-14" x1="794.76" y1="1288.17" x2="787.49" y2="1296.95"/>
    <polyline class="cls-14" points="763.85 1275.75 759.46 1267.95 747.27 1267.95 743.95 1273.98 741.62 1275.75"/>
    <polyline class="cls-14" points="763.09 1281.23 753.14 1278.68 741.52 1278.68"/>
    <line class="cls-14" x1="729.14" y1="1146.93" x2="710.24" y2="1109.66"/>
    <polyline class="cls-14" points="676.38 1091.53 687.01 1128.29 707.18 1135.19 723.19 1135.19"/>
    <path class="cls-14" d="M731.6,1160.07c-6.04-.37-31.82-2.41-31.82-2.41l-26.3-15.83-4.6-51.57"/>
    <ellipse class="cls-14" cx="719.69" cy="1146.93" rx="3.57" ry="6.38"/>
    <polygon class="cls-14" points="698.24 1168.12 679.76 1189.09 680.92 1191.71 706.41 1166.34 698.24 1168.12"/>
    <path class="cls-14" d="M746.24,1174.25l-16.77,25.16-12.04,8.81-3.31,9.56s-7.09,8.05-7.79,8.05-9.92-2.26-9.92-2.26l-6.86-3.61,4.97-2.68s26.69-36.64,35.43-37.57,16.3-5.45,16.3-5.45Z"/>
    <polyline class="cls-14" points="739.6 1177.34 724.29 1166.34 714.33 1171.84 685.22 1200.04 684.39 1205.36"/>
    <path class="cls-14" d="M751.1,1170.93l7.15,16.85s22.76,40.85,24.02,45.7c1.26,4.85,4.75,19.91,3.01,25.28s-6.68,14.06-6.68,14.06"/>
    <polyline class="cls-14" points="717.9 1257.37 729.14 1236.04 751.1 1223.53 768.42 1221.88 773.56 1236.29 783.1 1236.9"/>
    <polyline class="cls-14" points="714.07 1253.4 725.54 1230.63 747.95 1217.28 765.63 1215.51 770.88 1230.9 780.61 1231.55"/>
    <polyline class="cls-14" points="717.43 1208.22 719.69 1219.19 747.34 1256.12"/>
    <polyline class="cls-14" points="803.49 1263.6 798.58 1256.12 786.34 1254.86 785.27 1239.62 790.78 1249.06 800.51 1249.71 787.49 1225.83 785.75 1205.36 765.79 1176.55 754.67 1176.55"/>
    <polyline class="cls-14" points="787.86 1190.85 785.27 1195.7 776.29 1191.71"/>
    <polyline class="cls-8" points="765.79 1225.83 770.95 1239.62 780.61 1239.62 782.08 1256.12 776.29 1264.72"/>
    <line class="cls-8" x1="749.05" y1="1176.55" x2="773.93" y2="1225.83"/>
    <polygon class="cls-8" points="706.41 1112.21 716.12 1131.27 707.86 1131.27 691.18 1123.78 682.33 1097.57 706.41 1112.21"/>
    <polyline class="cls-8" points="700.24 1153.32 677.9 1138.08 673.82 1095.19 682.33 1131.27 714.07 1140.55"/>
    <polyline class="cls-8" points="693.09 1169.4 673.82 1157.15 679.76 1185.85"/>
    <polyline class="cls-8" points="779.08 1275.75 780.61 1281.23 771.88 1281.23 765.79 1285.1"/>
    <line class="cls-8" x1="787.86" y1="1278.68" x2="791.12" y2="1285.1"/>
    <polyline class="cls-8" points="763.09 1261.17 756.2 1257.37 751.1 1259.27 749.05 1264.72"/>
    <polyline class="cls-8" points="783.1 1295.04 785.75 1309.83 782.08 1316.47 776.29 1316.47"/>
    <polyline class="cls-8" points="736.54 1181.32 725.9 1198.34 711.99 1208.22 710.24 1217.74 703.1 1220.08 696.29 1220.08"/>
    <polyline class="cls-4" points="732.39 1176.55 723.27 1170.93 706.41 1189.15 688.87 1203.1 693.95 1213.66"/>
    <polyline class="cls-4" points="711.99 1142.85 714.07 1154.76 704.12 1153.32 684.39 1136.72"/>
    <polygon class="cls-4" points="763.09 1210.93 747.34 1181.32 734.07 1200.7 719.69 1208.22 727.95 1225.83 746.24 1213.66 763.09 1210.93"/>
    <polyline class="cls-4" points="716.12 1220.08 723.19 1229.32 714.07 1248.72 696.29 1227.95 709.35 1228.98 714.07 1221.88"/>
  </g>
  <g id="Cuerpo">
    <g>
      <polygon class="cls-42" points="458.96 1220.57 446.14 1234.87 527.38 1341.6 576.91 1341.6 655.61 1231.3 644.83 1220.57 651.3 1200.66 632.76 1187.13 489.04 1184.83 450.45 1207.81 458.96 1220.57"/>
      <g class="cls-45">
        <polyline class="cls-35" points="454.36 1213.94 513.09 1280.32 528.91 1266.79 578.45 1266.79 589.68 1282.87 644.83 1220.57 653.96 1197.27 550.87 1169.16 481.15 1189.53 450.45 1207.81 454.36 1213.94"/>
      </g>
      <polygon class="cls-3" points="458.96 1220.57 446.14 1234.87 527.38 1341.6 576.91 1341.6 655.61 1231.3 644.83 1220.57 651.3 1200.66 632.76 1187.13 489.04 1184.83 450.45 1207.81 458.96 1220.57"/>
    </g>
    <path class="cls-20" d="M438.02,1080.66s47.49-19.2,55.15-20.07,63.16-8.53,88-3.93c24.85,4.6,68.76,11.74,75.4,18.89s10.72,34.72,10.21,36.26.04,39.83.04,39.83c0,0,6.08,28.09,3.53,37.28-2.55,9.19-10.21,25.02-10.21,25.02h-8.68s-15.32-22.47-19.91-22.47-44.94-2.04-44.94-2.04c0,0-6.6,19.91-14.54,27.06s-23.25,6.64-31.93,6.13c-8.68-.51-22.98-18.38-22.47-26.04s0-9.7,0-9.7l-24.51,1.02-38.81,26.04h-9.19s-5.62-8.68-7.15-12.77,0-16.85,0-16.85c0,0-1.36-14.81-.68-25.02s3.23-30.13,3.23-30.13l-1.02-34.72-1.53-13.79Z"/>
    <path class="cls-14" d="M456.66,1083.21s28.61,47.09,29.69,48.71,21.59,37.89,19.43,43.3c-2.16,5.41-36.71,11.91-36.71,11.91l-26.53,22.57"/>
    <path class="cls-14" d="M650.42,1085.36s-27.99,44.83-29.05,46.37-21.13,36.07-19.01,41.22,35.92,11.34,35.92,11.34l25.96,21.48"/>
    <polyline class="cls-14" points="489.04 1136.63 513.6 1109.77 596.83 1109.77 617.12 1139.04"/>
    <polyline class="cls-14" points="505.39 1171.05 520.23 1179.21 536.57 1159.3 569.26 1159.3 584.06 1181.77 602.35 1172.95"/>
    <path class="cls-14" d="M442.54,1099.55s3.14,33.7,5.19,34.72c2.04,1.02,9.7,13.79,13.28,19.91,3.57,6.13,8.07,32.94,8.07,32.94"/>
    <path class="cls-14" d="M664.12,1095.25s-3.14,33.7-5.19,34.72c-2.04,1.02-9.7,13.79-13.28,19.91-3.57,6.13-8.07,32.94-8.07,32.94"/>
    <ellipse class="cls-12" cx="553.08" cy="1189.53" rx="20.68" ry="20.17"/>
    <ellipse class="cls-27" cx="553.08" cy="1189.43" rx="10.47" ry="11.23"/>
    <ellipse class="cls-12" cx="450.45" cy="1169.36" rx="8.51" ry="19.83"/>
    <ellipse class="cls-27" cx="450.45" cy="1169.26" rx="4.31" ry="11.04"/>
    <ellipse class="cls-12" cx="655.61" cy="1169.26" rx="8.51" ry="19.83"/>
    <ellipse class="cls-27" cx="655.61" cy="1169.16" rx="4.31" ry="11.04"/>
    <polygon class="cls-13" points="492.66 1139.04 515.13 1115.38 593.26 1115.38 612.15 1139.04 602.2 1162.87 596.83 1170.53 585.6 1178.19 570.79 1154.7 532.4 1155.21 518.7 1174.11 509 1170.53 492.66 1139.04"/>
    <path class="cls-18" d="M446.14,1083.21l4.31,46.98s11.06,8.04,15.66,19.34c4.6,11.3,8.13,32.24,8.13,32.24l27.1-7.15s-15.01-34.21-32.27-62.81l-17.26-28.6h-5.67Z"/>
    <path class="cls-18" d="M659.91,1089.5l-4.24,42.28s-10.88,7.23-15.4,17.4c-4.52,10.17-8,29.01-8,29.01l-26.66-6.43s14.76-30.79,31.74-56.53l16.98-25.74h5.58Z"/>
    <polyline class="cls-22" points="519.72 1119.47 501.34 1139.04 515.64 1169.36 532.4 1149.43 573.76 1149.43 586.11 1169.16"/>
    <polyline class="cls-13" points="450.45 1097.51 455.8 1129.17 469.07 1139.04 477.85 1178.19 495.72 1173.09"/>
    <polyline class="cls-13" points="655.61 1097.51 650.85 1132.49 633.22 1146.79 629.51 1174.11 612.15 1170.53"/>
    <polyline class="cls-3" points="455.8 1230.79 505.94 1282.87 514.11 1302.79 540 1286.96 569.26 1286.96 588.66 1302.79 597.85 1279.81 647.09 1230.79"/>
    <polyline class="cls-10" points="466.11 1209.7 513.09 1280.32 524.32 1272.66 578.45 1272.15 589.68 1282.87 637.58 1209.7"/>
    <polyline class="cls-10" points="461 1246.28 528.4 1335.47 573.76 1335.47"/>
  </g>
  <g id="Oreja_2" data-name="Oreja 2">
    <path class="cls-1" d="M358.39,795.16s-106.36-36.28-129.41-71.24c-23.05-34.96-58.33-102.43-58.25-121.02.08-18.59-3.69-48.82,7.18-56.19,10.86-7.37,42.66-8.45,42.66-8.45,0,0,54.46.19,89.62,27.31s61.87,53.06,81.32,93.76c19.45,40.69,34.54,72.65,34.54,72.65l-67.65,63.18Z"/>
    <path class="cls-40" d="M381.54,773.54s-77.41-35.53-104.81-58.97c-27.4-23.44-74.43-110.48-74.33-120.34s5.09-22.66,23.52-14.33c18.42,8.33,64.96,24.61,84.48,44.53,19.52,19.92,51.51,59.16,57.4,74.4,5.89,15.24,18.21,48.25,18.21,48.25l-4.46,26.46Z"/>
  </g>
  <g id="Oreja_1" data-name="Oreja 1">
    <path class="cls-1" d="M741.3,842.91s111.59,13.26,147.49-8.31c35.9-21.56,96.88-67.15,104.84-83.95,7.96-16.8,24.43-42.43,17.82-53.78-6.61-11.34-34.81-26.06-34.81-26.06,0,0-49.19-23.37-92.62-14.11s-78.73,21.11-113.85,49.39c-35.12,28.29-62.55,50.59-62.55,50.59l33.69,86.22Z"/>
    <path class="cls-40" d="M729.78,813.41s85.16,1.42,120-7.87c34.84-9.29,114.88-67.45,119.05-76.39,4.17-8.94,5.2-22.64-15.01-23.09-20.22-.45-69.21-5.88-95.43,3.64-26.22,9.53-72.02,31.08-83.92,42.28-11.9,11.2-37.28,35.64-37.28,35.64l-7.41,25.79Z"/>
  </g>
  <g id="Cabeza">
    <path class="cls-20" d="M422.06,703.81s-54,35.23-74.93,84.26l-3.06,9.19-14.31,34.21-8.16,15.83s-15.83-3.06-20.94,6.64-2.55,5.11-2.55,5.11l-24,14.81-2.55,59.74,5.62,36.26s-3.06,22.98,3.57,27.06,29.62,14.3,29.62,14.3c0,0,4.09,11.23,6.64,18.38s14.81,8.68,14.81,8.68l4.6,8.17,4.6-7.66,8.68,16.85,26.55,22.98,20.94,4.14s24.51,14.24,40.34,16.79c15.83,2.55,27.35,4.09,27.35,4.09h7.37s37.28,15.83,46.47,15.83,16.3,9.7,16.3,9.7h27.61l7.15-8.17s38.3-1.53,48-8.17c9.7-6.64,15.83-10.21,15.83-10.21l4.73.51s55.53-13.79,60.63-16.34c5.11-2.55,29.11-8.17,29.11-8.17,0,0,15.83-13.79,21.96-21.45,6.13-7.66,12.23-20.43,12.23-20.43l2.57.51s8.17,13.28,8.17,8.17,2.04-8.17,2.04-8.17c0,0,3.57.51,10.72-4.09,7.15-4.6,9.19-24.51,9.19-24.51,0,0,25.02-6.13,27.57-9.7s7.15-11.49,7.15-11.49v-18.12l5.62-75.06-3.06-17.44s-16.8-16.79-20.65-18.32-4.88-3.05-4.88-3.05l-4.09-6.13-16.85-7.66-2.55-11.74-8.68.51s-37.28-94.47-75.57-115.4-86.3-40.85-86.3-40.85l1.53-7.15-11.23-7.15s-54.22-3.06-75.37-2.55-32.89,6.13-32.89,6.13l-2.55,12.26s-36.77,8.17-44.43,12.26c-7.66,4.09-25.66,15.83-25.66,15.83Z"/>
    <polygon class="cls-39" points="519.51 721.37 598.14 721.37 584.87 781.51 569.04 788.27 540.91 796.44 525.12 778.96 519.51 721.37"/>
    <line class="cls-7" x1="321.6" y1="847.3" x2="341" y2="1038.79"/>
    <line class="cls-7" x1="774.53" y1="830.45" x2="764.83" y2="1037.26"/>
    <line class="cls-20" x1="298.11" y1="859.04" x2="310.36" y2="1011.21"/>
    <line class="cls-20" x1="274.11" y1="873.85" x2="283.33" y2="998.38"/>
    <line class="cls-20" x1="785.77" y1="841.68" x2="775.04" y2="1037.26"/>
    <line class="cls-20" x1="806.7" y1="855.47" x2="794.96" y2="1008.66"/>
    <polyline class="cls-20" points="477.32 679.2 473.77 757.43 434.45 789.09 436.49 800.32 452.83 816.66 469.68 824.32 477.32 819.21 481.94 811.55 478.36 778.87 464.86 769.68"/>
    <polyline class="cls-20" points="626.29 679.2 629.84 756.32 669.16 787.54 667.12 798.61 650.78 814.72 633.93 822.28 626.29 817.24 621.67 809.69 625.25 777.47 638.75 768.41"/>
    <polyline class="cls-20" points="481.94 801.34 507.98 818.19 514.11 841.68 591.72 841.68 595.81 821.51 619.3 803.33"/>
    <path class="cls-20" d="M677.08,703.65l-7.92,20.58,32.86,30.13-3.06,20.43s2.4,5.62,9.12,9.7,11.82,1.02,12.84-3.06-12.84-19.91-12.84-19.91l-3.5,2.04,8.68,13.28"/>
    <path class="cls-20" d="M426.53,701.1l7.92,20.58-32.86,30.13,3.06,20.43s-2.4,5.62-9.12,9.7-11.82,1.02-12.84-3.06,12.84-19.91,12.84-19.91l3.5,2.04-8.68,13.28"/>
    <path class="cls-20" d="M495.21,679.2l8.07,32.78,10.31,14.3s25.35-7.15,37.95-7.15,40.69,7.15,40.69,7.15l8.27-14.81,11.14-32.27"/>
    <path class="cls-20" d="M500.83,664.49l5.62,26.04s-1.02,12.77,2.04,16.34,8.17,9.19,8.17,9.19c0,0,30.13-4.09,45.45-2.55s30.64,2.55,30.64,2.55c0,0,4.6-19.91,5.11-21.96s10.21-25.53,10.21-25.53"/>
    <path class="cls-20" d="M434.45,793.17l-40.34,12.77s-42.82,24.51-44.13,41.36c-1.32,16.85-13.06,123.05-8.97,140.17s27.57,28.35,31.66,29.88,42.55,9.7,42.55,9.7l52.94,46.47v30.13"/>
    <path class="cls-20" d="M669.42,793.17l40.34,12.77s42.82,24.51,44.13,41.36c1.32,16.85,13.06,123.05,8.97,140.17-4.09,17.11-27.57,28.35-31.66,29.88s-42.55,9.7-42.55,9.7l-52.94,46.47v30.13"/>
    <polygon class="cls-14" points="493.17 1065.85 495.21 1091.89 523.3 1091.89 540.15 1075.55 561.6 1075.55 585.09 1094.45 608.06 1091.38 608.06 1065.85 559.55 1056.66 543.6 1056.66 493.17 1065.85"/>
    <line class="cls-14" x1="611.64" y1="1071.47" x2="631.55" y2="1075.55"/>
    <line class="cls-14" x1="611.72" y1="1076.06" x2="631.63" y2="1080.15"/>
    <line class="cls-14" x1="611.93" y1="1080.66" x2="631.85" y2="1084.74"/>
    <line class="cls-14" x1="611.93" y1="1085.26" x2="631.85" y2="1089.34"/>
    <line class="cls-14" x1="490.76" y1="1071.47" x2="470.85" y2="1075.55"/>
    <line class="cls-14" x1="490.69" y1="1076.06" x2="470.77" y2="1080.15"/>
    <line class="cls-14" x1="490.47" y1="1080.66" x2="470.56" y2="1084.74"/>
    <line class="cls-14" x1="490.47" y1="1085.26" x2="470.56" y2="1089.34"/>
    <polyline class="cls-14" points="493.17 1091.89 490.76 1106.19 527.59 1114.36 523.3 1091.89"/>
    <polyline class="cls-14" points="584.06 1094.45 578.96 1114.36 616.23 1104.4 608.06 1091.38"/>
    <polyline class="cls-14" points="278.72 927.95 298.11 918.28 303.14 921.56 303.14 951.98 290.93 959.23 283.33 943.04 288.4 938.75 294.53 936.12 296.06 943.04 290.93 948.27"/>
    <polyline class="cls-14" points="800.83 928.67 820.22 918.99 825.25 922.27 825.25 952.7 813.04 959.94 805.44 943.76 810.52 939.47 816.64 936.83 818.17 943.76 813.04 948.99"/>
    <polyline class="cls-15" points="527.59 726.28 531.01 774.79 543.6 786.42 578.96 773.26"/>
    <polyline class="cls-8" points="303.2 858.68 320.04 1018.18 330.11 1032.83"/>
    <line class="cls-8" x1="800.83" y1="855.47" x2="785.77" y2="1022.96"/>
    <path class="cls-8" d="M422.12,709.68s-47.35,43.15-55.04,51.83-39.86,93.96-39.86,93.96l7.66,84"/>
    <polyline class="cls-8" points="481.94 685.94 480.51 766.36 485.77 796.44 512.57 813.85 519.51 830.45 585.34 830.45"/>
    <polyline class="cls-8" points="509.18 664.49 513.34 685.94 513.34 703.65 522.53 709.68 558.83 709.68 589.17 709.68"/>
    <path class="cls-13" d="M344.06,1008.66l23.01,14.3,41.47,9.88,49.65,47.83s2.3,12.51,0,13.79-56.55-18.89-56.55-18.89l-34.56-18.89-17.1-17.87-5.91-30.13Z"/>
    <path class="cls-13" d="M761.02,1008.66l-23.01,14.3-41.47,9.88-49.65,47.83s-2.3,12.51,0,13.79c2.3,1.28,56.55-18.89,56.55-18.89l34.56-18.89,17.1-17.87,5.91-30.13Z"/>
    <polyline class="cls-8" points="631.85 690.28 635.71 750.74 672.66 778.62 672.66 786.42 729.34 809.26 757.55 836.06"/>
    <polyline class="cls-8" points="500.83 1067.89 500.83 1087.3 519.51 1087.3 535 1071.47 566.96 1073.51 585.34 1089.34 603.72 1089.34"/>
    <polygon class="cls-13" points="531.01 1094.45 543.6 1080.66 558.83 1080.66 576.2 1094.5 558.83 1123.3 543.6 1123.3 531.01 1094.45"/>
    <polyline class="cls-29" points="535 726.28 535 772.49 549.17 780.15 578.96 763.17 585.34 732.66 558.83 726.28 539.3 726.28"/>
  </g>
  <g id="Cara">
    <g>
      <path class="cls-26" d="M594.28,856.49c-8.78,2.56-82.08-2.81-86.3-.51-6.52,3.56-23.95-38.02-34.21-32.17-11.3,6.44-22.77-10.52-24.51-11.23-7.47-3.07-9.09-11.5-16.85-8.68-21.83,7.92-42.96,10.09-54.13,27.06-25.32,38.5-20.83,44.54-24.51,59.23-3.84,15.33-2.04,15.58-3.06,40.34-1.68,40.69.17,21.43-.51,49.02-.14,5.68-1.09,9.32,14.81,22.98,29.36,25.23,36.2,18.43,54.64,19.91,8.33.67,13.71,10.8,28.09,20.94,11.94,8.42,12.18,11.33,16.51,16l5.45,6.98c20.17-5.42,27.82-6.96,49.53-10.21,19.51-2.92,54.87-5.36,110.81,11.74,10.9-14.57,30.44-30.04,54.13-47.49,5.22-3.85,54.71,4.21,65.87-25.02,13.21-34.58,8.77-101.08-11.23-149.11-10.46-25.12-55-43.52-70.47-41.36-20.14,2.81-23.76,21.52-41.87,21.45-3.52-.01-8.14,3.32-13.79,11.74-9.58,14.29-17.97,19.89-18.38,18.38Z"/>
      <path class="cls-19" d="M594.28,856.49c-8.78,2.56-82.08-2.81-86.3-.51-6.52,3.56-23.95-38.02-34.21-32.17-11.3,6.44-22.77-10.52-24.51-11.23-7.47-3.07-9.09-11.5-16.85-8.68-21.83,7.92-42.96,10.09-54.13,27.06-25.32,38.5-20.83,44.54-24.51,59.23-3.84,15.33-2.04,15.58-3.06,40.34-1.68,40.69.17,21.43-.51,49.02-.14,5.68-1.09,9.32,14.81,22.98,29.36,25.23,36.2,18.43,54.64,19.91,8.33.67,13.71,10.8,28.09,20.94,11.94,8.42,12.18,11.33,16.51,16l5.45,6.98c20.17-5.42,27.82-6.96,49.53-10.21,19.51-2.92,54.87-5.36,110.81,11.74,10.9-14.57,30.44-30.04,54.13-47.49,5.22-3.85,54.71,4.21,65.87-25.02,13.21-34.58,8.77-101.08-11.23-149.11-10.46-25.12-55-43.52-70.47-41.36-20.14,2.81-23.76,21.52-41.87,21.45-3.52-.01-8.14,3.32-13.79,11.74-9.58,14.29-17.97,19.89-18.38,18.38Z"/>
    </g>
    <polygon class="cls-20" points="755.64 915.72 720.91 917.14 720.91 948.27 755.64 948.27 755.64 915.72"/>
    <path class="cls-28" d="M450.02,890.19s-16.06-14.52-35.74-12.71c-1.28.12-2.11.18-3.49.33-.22.15-2.13.51-2.35.66.14-.01.22-.02.22-.02,0,0-.35.16-.96.47-.53.31-1.08.61-1.65.89-7.37,4.17-27.8,18.27-26.75,46.13,0,0,0,38.55,22.47,43.91,0,0,24.77,10.47,44.43-3.83,0,0,16.6-10.47,18.38-34.21,0,0,3.57-22.72-14.55-41.62Z"/>
    <path class="cls-17" d="M653.16,889.71s16.06-14.52,35.74-12.71c1.28.12,2.11.18,3.49.33.22.15,2.13.51,2.35.66-.14-.01-.22-.02-.22-.02,0,0,.35.16.96.47.53.31,1.08.61,1.65.89,7.37,4.17,27.8,18.27,26.75,46.13,0,0,0,38.55-22.47,43.91,0,0-24.77,10.47-44.43-3.83,0,0-16.6-10.47-18.38-34.21,0,0-3.57-22.72,14.55-41.62Z"/>
    <ellipse class="cls-27" cx="415.21" cy="906.03" rx="16.62" ry="13.62" transform="translate(-519.05 558.97) rotate(-45)"/>
    <ellipse class="cls-27" cx="664.01" cy="896.19" rx="5.48" ry="5.67" transform="translate(-439.22 732.01) rotate(-45)"/>
    <ellipse class="cls-27" cx="708.07" cy="912.53" rx="5.48" ry="5.67" transform="translate(-437.87 767.96) rotate(-45)"/>
    <circle class="cls-41" cx="681.12" cy="921.56" r="17.8"/>
    <ellipse class="cls-39" cx="681.12" cy="921.56" rx="13.94" ry="14.27" transform="translate(-452.14 751.54) rotate(-45)"/>
    <path class="cls-24" d="M503.29,989.77s15.71,18.38,31.42,8.85c0,0,13.06-7.83,15.71-12.6l1.48-5.62"/>
    <path class="cls-24" d="M600.5,989.77s-15.71,18.38-31.42,8.85c0,0-13.06-7.83-15.71-12.6l-1.48-5.62v-6.84"/>
    <path class="cls-40" d="M562.86,953.66c-7.88-2.09-16.18-2.27-24.09-.29-5.39,1.35-9.57,3.48-6.96,6.78,0,0,9.19,14.03,18.38,13.4,0,0,8.51.39,15.32-6.08,0,0,10.55-7.15,4.91-11.8l-7.57-2.01Z"/>
    <path class="cls-31" d="M543.6,955.04s-8.04-.64-8.55,2.3,4.28,6.13,4.28,6.13c0,0-4.4-5.62-3.26-6.26s7.53-2.17,7.53-2.17Z"/>
    <path class="cls-39" d="M387.31,925.43s6.64,31.35,20.94,34.57,27.57,3.61,35.74-5.02,13.28-21.9,13.28-21.9c0,0,.51,24.51-17.36,30.38s-34.21,0-34.21,0c0,0-17.36-7.08-18.38-17.71s0-20.32,0-20.32Z"/>
    <path class="cls-34" d="M716.37,925.43s-6.73,31.35-21.23,34.57c-14.5,3.21-27.97,3.61-36.25-5.02s-13.47-21.9-13.47-21.9c0,0-.52,24.51,17.61,30.38,18.13,5.87,34.7,0,34.7,0,0,0,17.61-7.08,18.64-17.71,1.04-10.63,0-20.32,0-20.32Z"/>
    <path class="cls-34" d="M716.37,915.29s-6.73,31.35-21.23,34.57-27.97,3.61-36.25-5.02c-8.29-8.62-13.47-21.9-13.47-21.9,0,0-.52,24.51,17.61,30.38,18.13,5.87,34.7,0,34.7,0,0,0,17.61-7.08,18.64-17.71,1.04-10.63,0-20.32,0-20.32Z"/>
    <path class="cls-34" d="M716.37,907.63s-6.73,31.35-21.23,34.57c-14.5,3.21-27.97,3.61-36.25-5.02s-13.47-21.9-13.47-21.9c0,0-.52,24.51,17.61,30.38,18.13,5.87,34.7,0,34.7,0,0,0,17.61-7.08,18.64-17.71,1.04-10.63,0-20.32,0-20.32Z"/>
    <ellipse class="cls-36" cx="393.31" cy="991.1" rx="26.29" ry="15.07"/>
    <ellipse class="cls-36" cx="716.83" cy="991.1" rx="26.29" ry="15.07"/>
    <line class="cls-17" x1="729.14" y1="921.56" x2="751.04" y2="921.56"/>
    <line class="cls-17" x1="729.14" y1="927.95" x2="751.04" y2="927.95"/>
    <line class="cls-17" x1="729.14" y1="934.35" x2="751.04" y2="934.35"/>
    <line class="cls-8" x1="727.21" y1="942.62" x2="751.04" y2="942.62"/>
  </g>
  <g id="Cara_2" data-name="Cara 2" class="cls-46">
    <g>
      <path class="cls-26" d="M594.28,856.49c-8.78,2.56-82.08-2.81-86.3-.51-6.52,3.56-23.95-38.02-34.21-32.17-11.3,6.44-22.77-10.52-24.51-11.23-7.47-3.07-9.09-11.5-16.85-8.68-21.83,7.92-42.96,10.09-54.13,27.06-25.32,38.5-20.83,44.54-24.51,59.23-3.84,15.33-2.04,15.58-3.06,40.34-1.68,40.69.17,21.43-.51,49.02-.14,5.68-1.09,9.32,14.81,22.98,29.36,25.23,36.2,18.43,54.64,19.91,8.33.67,13.71,10.8,28.09,20.94,11.94,8.42,12.18,11.33,16.51,16l5.45,6.98c20.17-5.42,27.82-6.96,49.53-10.21,19.51-2.92,54.87-5.36,110.81,11.74,10.9-14.57,30.44-30.04,54.13-47.49,5.22-3.85,54.71,4.21,65.87-25.02,13.21-34.58,8.77-101.08-11.23-149.11-10.46-25.12-55-43.52-70.47-41.36-20.14,2.81-23.76,21.52-41.87,21.45-3.52-.01-8.14,3.32-13.79,11.74-9.58,14.29-17.97,19.89-18.38,18.38Z"/>
      <path class="cls-19" d="M594.28,856.49c-8.78,2.56-82.08-2.81-86.3-.51-6.52,3.56-23.95-38.02-34.21-32.17-11.3,6.44-22.77-10.52-24.51-11.23-7.47-3.07-9.09-11.5-16.85-8.68-21.83,7.92-42.96,10.09-54.13,27.06-25.32,38.5-20.83,44.54-24.51,59.23-3.84,15.33-2.04,15.58-3.06,40.34-1.68,40.69.17,21.43-.51,49.02-.14,5.68-1.09,9.32,14.81,22.98,29.36,25.23,36.2,18.43,54.64,19.91,8.33.67,13.71,10.8,28.09,20.94,11.94,8.42,12.18,11.33,16.51,16l5.45,6.98c20.17-5.42,27.82-6.96,49.53-10.21,19.51-2.92,54.87-5.36,110.81,11.74,10.9-14.57,30.44-30.04,54.13-47.49,5.22-3.85,54.71,4.21,65.87-25.02,13.21-34.58,8.77-101.08-11.23-149.11-10.46-25.12-55-43.52-70.47-41.36-20.14,2.81-23.76,21.52-41.87,21.45-3.52-.01-8.14,3.32-13.79,11.74-9.58,14.29-17.97,19.89-18.38,18.38Z"/>
    </g>
    <polygon class="cls-20" points="755.64 915.72 720.91 917.14 720.91 948.27 755.64 948.27 755.64 915.72"/>
    <path class="cls-17" d="M653.16,889.71s16.06-14.52,35.74-12.71c1.28.12,2.11.18,3.49.33.22.15,2.13.51,2.35.66-.14-.01-.22-.02-.22-.02,0,0,.35.16.96.47.53.31,1.08.61,1.65.89,7.37,4.17,27.8,18.27,26.75,46.13,0,0,0,38.55-22.47,43.91,0,0-24.77,10.47-44.43-3.83,0,0-16.6-10.47-18.38-34.21,0,0-3.57-22.72,14.55-41.62Z"/>
    <path class="cls-40" d="M562.86,953.66c-7.88-2.09-16.18-2.27-24.09-.29-5.39,1.35-9.57,3.48-6.96,6.78,0,0,9.19,14.03,18.38,13.4,0,0,8.51.39,15.32-6.08,0,0,10.55-7.15,4.91-11.8l-7.57-2.01Z"/>
    <path class="cls-31" d="M543.6,955.04s-8.04-.64-8.55,2.3,4.28,6.13,4.28,6.13c0,0-4.4-5.62-3.26-6.26s7.53-2.17,7.53-2.17Z"/>
    <path class="cls-34" d="M716.37,925.43s-6.73,31.35-21.23,34.57c-14.5,3.21-27.97,3.61-36.25-5.02s-13.47-21.9-13.47-21.9c0,0-.52,24.51,17.61,30.38,18.13,5.87,34.7,0,34.7,0,0,0,17.61-7.08,18.64-17.71,1.04-10.63,0-20.32,0-20.32Z"/>
    <path class="cls-34" d="M716.37,915.29s-6.73,31.35-21.23,34.57-27.97,3.61-36.25-5.02c-8.29-8.62-13.47-21.9-13.47-21.9,0,0-.52,24.51,17.61,30.38,18.13,5.87,34.7,0,34.7,0,0,0,17.61-7.08,18.64-17.71,1.04-10.63,0-20.32,0-20.32Z"/>
    <path class="cls-34" d="M716.37,907.63s-6.73,31.35-21.23,34.57c-14.5,3.21-27.97,3.61-36.25-5.02s-13.47-21.9-13.47-21.9c0,0-.52,24.51,17.61,30.38,18.13,5.87,34.7,0,34.7,0,0,0,17.61-7.08,18.64-17.71,1.04-10.63,0-20.32,0-20.32Z"/>
    <ellipse class="cls-36" cx="393.31" cy="991.1" rx="26.29" ry="15.07"/>
    <ellipse class="cls-36" cx="716.83" cy="991.1" rx="26.29" ry="15.07"/>
    <line class="cls-17" x1="729.14" y1="921.56" x2="751.04" y2="921.56"/>
    <line class="cls-17" x1="729.14" y1="927.95" x2="751.04" y2="927.95"/>
    <line class="cls-17" x1="729.14" y1="934.35" x2="751.04" y2="934.35"/>
    <line class="cls-8" x1="727.21" y1="942.62" x2="751.04" y2="942.62"/>
    <polyline class="cls-21" points="401.54 907.63 469.68 927.95 401.54 951.98"/>
    <polyline class="cls-5" points="706.65 909.87 658.01 926.44 706.65 946.03"/>
    <polyline class="cls-16" points="532.61 983.83 552.03 976.98 568.62 983.83"/>
  </g>
  <g id="Cara_3" data-name="Cara 3" class="cls-46">
    <g>
      <path class="cls-26" d="M594.28,856.49c-8.78,2.56-82.08-2.81-86.3-.51-6.52,3.56-23.95-38.02-34.21-32.17-11.3,6.44-22.77-10.52-24.51-11.23-7.47-3.07-9.09-11.5-16.85-8.68-21.83,7.92-42.96,10.09-54.13,27.06-25.32,38.5-20.83,44.54-24.51,59.23-3.84,15.33-2.04,15.58-3.06,40.34-1.68,40.69.17,21.43-.51,49.02-.14,5.68-1.09,9.32,14.81,22.98,29.36,25.23,36.2,18.43,54.64,19.91,8.33.67,13.71,10.8,28.09,20.94,11.94,8.42,12.18,11.33,16.51,16l5.45,6.98c20.17-5.42,27.82-6.96,49.53-10.21,19.51-2.92,54.87-5.36,110.81,11.74,10.9-14.57,30.44-30.04,54.13-47.49,5.22-3.85,54.71,4.21,65.87-25.02,13.21-34.58,8.77-101.08-11.23-149.11-10.46-25.12-55-43.52-70.47-41.36-20.14,2.81-23.76,21.52-41.87,21.45-3.52-.01-8.14,3.32-13.79,11.74-9.58,14.29-17.97,19.89-18.38,18.38Z"/>
      <path class="cls-19" d="M594.28,856.49c-8.78,2.56-82.08-2.81-86.3-.51-6.52,3.56-23.95-38.02-34.21-32.17-11.3,6.44-22.77-10.52-24.51-11.23-7.47-3.07-9.09-11.5-16.85-8.68-21.83,7.92-42.96,10.09-54.13,27.06-25.32,38.5-20.83,44.54-24.51,59.23-3.84,15.33-2.04,15.58-3.06,40.34-1.68,40.69.17,21.43-.51,49.02-.14,5.68-1.09,9.32,14.81,22.98,29.36,25.23,36.2,18.43,54.64,19.91,8.33.67,13.71,10.8,28.09,20.94,11.94,8.42,12.18,11.33,16.51,16l5.45,6.98c20.17-5.42,27.82-6.96,49.53-10.21,19.51-2.92,54.87-5.36,110.81,11.74,10.9-14.57,30.44-30.04,54.13-47.49,5.22-3.85,54.71,4.21,65.87-25.02,13.21-34.58,8.77-101.08-11.23-149.11-10.46-25.12-55-43.52-70.47-41.36-20.14,2.81-23.76,21.52-41.87,21.45-3.52-.01-8.14,3.32-13.79,11.74-9.58,14.29-17.97,19.89-18.38,18.38Z"/>
    </g>
    <polygon class="cls-20" points="755.64 915.72 720.91 917.14 720.91 948.27 755.64 948.27 755.64 915.72"/>
    <path class="cls-28" d="M454.28,890.56s-17.02-14.46-37.89-12.66c-1.36.12-2.23.18-3.71.33-.23.15-2.26.51-2.49.65.15-.01.24-.02.24-.02,0,0-.38.16-1.02.46-.56.31-1.14.61-1.75.89-7.81,4.15-29.47,18.19-28.36,45.93,0,0,0,38.38,23.82,43.72,0,0,26.26,10.42,47.1-3.81,0,0,17.59-10.42,19.49-34.06,0,0,3.79-22.62-15.43-41.43Z"/>
    <path class="cls-17" d="M653.16,889.71s16.06-14.52,35.74-12.71c1.28.12,2.11.18,3.49.33.22.15,2.13.51,2.35.66-.14-.01-.22-.02-.22-.02,0,0,.35.16.96.47.53.31,1.08.61,1.65.89,7.37,4.17,27.8,18.27,26.75,46.13,0,0,0,38.55-22.47,43.91,0,0-24.77,10.47-44.43-3.83,0,0-16.6-10.47-18.38-34.21,0,0-3.57-22.72,14.55-41.62Z"/>
    <g>
      <polygon class="cls-44" points="528.95 986.67 551.55 1018.36 574.44 986.67 551.55 973.55 528.95 986.67"/>
      <g class="cls-43">
        <polygon class="cls-33" points="536.36 1000.74 567.55 1001.26 552.9 1020.91 536.36 1000.74"/>
        <line class="cls-6" x1="548.76" y1="973.57" x2="549.01" y2="988.63"/>
        <line class="cls-6" x1="553.51" y1="973.57" x2="553.76" y2="988.63"/>
      </g>
    </g>
    <path class="cls-2" d="M551.55,973.55s-17.45,12.39-25.62,12.9-23.23,0-23.23,0"/>
    <path class="cls-2" d="M551.55,973.55s17.45,12.39,25.62,12.9,23.23,0,23.23,0"/>
    <path class="cls-40" d="M562.86,953.66c-7.88-2.09-16.18-2.27-24.09-.29-5.39,1.35-9.57,3.48-6.96,6.78,0,0,9.19,14.03,18.38,13.4,0,0,8.51.39,15.32-6.08,0,0,10.55-7.15,4.91-11.8l-7.57-2.01Z"/>
    <path class="cls-31" d="M543.6,955.04s-8.04-.64-8.55,2.3,4.28,6.13,4.28,6.13c0,0-4.4-5.62-3.26-6.26s7.53-2.17,7.53-2.17Z"/>
    <path class="cls-39" d="M387.79,925.65s7.04,31.21,22.2,34.41c15.16,3.2,29.23,3.59,37.9-4.99s14.08-21.8,14.08-21.8c0,0,.54,24.4-18.41,30.25-18.95,5.85-36.27,0-36.27,0,0,0-18.41-7.05-19.49-17.63s0-20.23,0-20.23Z"/>
    <path class="cls-34" d="M716.37,925.43s-6.73,31.35-21.23,34.57c-14.5,3.21-27.97,3.61-36.25-5.02s-13.47-21.9-13.47-21.9c0,0-.52,24.51,17.61,30.38,18.13,5.87,34.7,0,34.7,0,0,0,17.61-7.08,18.64-17.71,1.04-10.63,0-20.32,0-20.32Z"/>
    <path class="cls-34" d="M716.37,915.29s-6.73,31.35-21.23,34.57-27.97,3.61-36.25-5.02c-8.29-8.62-13.47-21.9-13.47-21.9,0,0-.52,24.51,17.61,30.38,18.13,5.87,34.7,0,34.7,0,0,0,17.61-7.08,18.64-17.71,1.04-10.63,0-20.32,0-20.32Z"/>
    <path class="cls-34" d="M716.37,907.63s-6.73,31.35-21.23,34.57c-14.5,3.21-27.97,3.61-36.25-5.02s-13.47-21.9-13.47-21.9c0,0-.52,24.51,17.61,30.38,18.13,5.87,34.7,0,34.7,0,0,0,17.61-7.08,18.64-17.71,1.04-10.63,0-20.32,0-20.32Z"/>
    <ellipse class="cls-36" cx="393.31" cy="991.1" rx="26.29" ry="15.07"/>
    <ellipse class="cls-36" cx="716.83" cy="991.1" rx="26.29" ry="15.07"/>
    <line class="cls-17" x1="729.14" y1="921.56" x2="751.04" y2="921.56"/>
    <line class="cls-17" x1="729.14" y1="927.95" x2="751.04" y2="927.95"/>
    <line class="cls-17" x1="729.14" y1="934.35" x2="751.04" y2="934.35"/>
    <line class="cls-8" x1="727.21" y1="942.62" x2="751.04" y2="942.62"/>
    <polygon class="cls-27" points="441.4 954.95 421.68 937.09 397.49 949.17 409.49 926.04 389.77 908.17 416.91 911.75 428.91 888.62 433.68 913.95 460.82 917.53 436.63 929.62 441.4 954.95"/>
    <polygon class="cls-32" points="698.49 957.51 678.51 940.63 654.66 951.37 664.54 927.15 646.96 907.78 673.04 909.69 686.03 886.99 692.27 912.39 717.88 917.72 695.65 931.51 698.49 957.51"/>
    <polygon class="cls-38" points="694.35 947.88 679.91 935.64 662.71 943.38 669.81 925.87 657.09 911.84 675.93 913.25 685.27 896.84 689.81 915.23 708.3 919.12 692.27 929.06 694.35 947.88"/>
  </g>
  <g id="Cara_4" data-name="Cara 4" class="cls-46">
    <g>
      <path class="cls-26" d="M594.28,856.49c-8.78,2.56-82.08-2.81-86.3-.51-6.52,3.56-23.95-38.02-34.21-32.17-11.3,6.44-22.77-10.52-24.51-11.23-7.47-3.07-9.09-11.5-16.85-8.68-21.83,7.92-42.96,10.09-54.13,27.06-25.32,38.5-20.83,44.54-24.51,59.23-3.84,15.33-2.04,15.58-3.06,40.34-1.68,40.69.17,21.43-.51,49.02-.14,5.68-1.09,9.32,14.81,22.98,29.36,25.23,36.2,18.43,54.64,19.91,8.33.67,13.71,10.8,28.09,20.94,11.94,8.42,12.18,11.33,16.51,16l5.45,6.98c20.17-5.42,27.82-6.96,49.53-10.21,19.51-2.92,54.87-5.36,110.81,11.74,10.9-14.57,30.44-30.04,54.13-47.49,5.22-3.85,54.71,4.21,65.87-25.02,13.21-34.58,8.77-101.08-11.23-149.11-10.46-25.12-55-43.52-70.47-41.36-20.14,2.81-23.76,21.52-41.87,21.45-3.52-.01-8.14,3.32-13.79,11.74-9.58,14.29-17.97,19.89-18.38,18.38Z"/>
      <path class="cls-19" d="M594.28,856.49c-8.78,2.56-82.08-2.81-86.3-.51-6.52,3.56-23.95-38.02-34.21-32.17-11.3,6.44-22.77-10.52-24.51-11.23-7.47-3.07-9.09-11.5-16.85-8.68-21.83,7.92-42.96,10.09-54.13,27.06-25.32,38.5-20.83,44.54-24.51,59.23-3.84,15.33-2.04,15.58-3.06,40.34-1.68,40.69.17,21.43-.51,49.02-.14,5.68-1.09,9.32,14.81,22.98,29.36,25.23,36.2,18.43,54.64,19.91,8.33.67,13.71,10.8,28.09,20.94,11.94,8.42,12.18,11.33,16.51,16l5.45,6.98c20.17-5.42,27.82-6.96,49.53-10.21,19.51-2.92,54.87-5.36,110.81,11.74,10.9-14.57,30.44-30.04,54.13-47.49,5.22-3.85,54.71,4.21,65.87-25.02,13.21-34.58,8.77-101.08-11.23-149.11-10.46-25.12-55-43.52-70.47-41.36-20.14,2.81-23.76,21.52-41.87,21.45-3.52-.01-8.14,3.32-13.79,11.74-9.58,14.29-17.97,19.89-18.38,18.38Z"/>
    </g>
    <polygon class="cls-20" points="755.64 915.72 720.91 917.14 720.91 948.27 755.64 948.27 755.64 915.72"/>
    <path class="cls-28" d="M450.02,890.19s-16.06-14.52-35.74-12.71c-1.28.12-2.11.18-3.49.33-.22.15-2.13.51-2.35.66.14-.01.22-.02.22-.02,0,0-.35.16-.96.47-.53.31-1.08.61-1.65.89-7.37,4.17-27.8,18.27-26.75,46.13,0,0,0,38.55,22.47,43.91,0,0,24.77,10.47,44.43-3.83,0,0,16.6-10.47,18.38-34.21,0,0,3.57-22.72-14.55-41.62Z"/>
    <path class="cls-17" d="M653.16,889.71s16.06-14.52,35.74-12.71c1.28.12,2.11.18,3.49.33.22.15,2.13.51,2.35.66-.14-.01-.22-.02-.22-.02,0,0,.35.16.96.47.53.31,1.08.61,1.65.89,7.37,4.17,27.8,18.27,26.75,46.13,0,0,0,38.55-22.47,43.91,0,0-24.77,10.47-44.43-3.83,0,0-16.6-10.47-18.38-34.21,0,0-3.57-22.72,14.55-41.62Z"/>
    <ellipse class="cls-27" cx="408.27" cy="901.91" rx="11.86" ry="8.55" transform="translate(-518.17 552.85) rotate(-45)"/>
    <ellipse class="cls-27" cx="440.43" cy="936.12" rx="11.86" ry="8.55" transform="translate(-532.94 585.62) rotate(-45)"/>
    <ellipse class="cls-27" cx="664.01" cy="896.19" rx="5.48" ry="5.67" transform="translate(-439.22 732.01) rotate(-45)"/>
    <ellipse class="cls-27" cx="708.07" cy="912.53" rx="5.48" ry="5.67" transform="translate(-437.87 767.96) rotate(-45)"/>
    <ellipse class="cls-27" cx="655.45" cy="915.72" rx="5.48" ry="5.67" transform="translate(-455.54 731.68) rotate(-45)"/>
    <circle class="cls-41" cx="681.12" cy="921.56" r="17.8"/>
    <ellipse class="cls-39" cx="681.12" cy="921.56" rx="13.94" ry="14.27" transform="translate(-452.14 751.54) rotate(-45)"/>
    <polyline class="cls-24" points="533.03 991.1 552.21 973.55 568.21 991.1"/>
    <path class="cls-40" d="M562.86,953.66c-7.88-2.09-16.18-2.27-24.09-.29-5.39,1.35-9.57,3.48-6.96,6.78,0,0,9.19,14.03,18.38,13.4,0,0,8.51.39,15.32-6.08,0,0,10.55-7.15,4.91-11.8l-7.57-2.01Z"/>
    <path class="cls-31" d="M543.6,955.04s-8.04-.64-8.55,2.3,4.28,6.13,4.28,6.13c0,0-4.4-5.62-3.26-6.26s7.53-2.17,7.53-2.17Z"/>
    <path class="cls-39" d="M387.31,925.43s6.64,31.35,20.94,34.57,27.57,3.61,35.74-5.02,13.28-21.9,13.28-21.9c0,0,.51,24.51-17.36,30.38s-34.21,0-34.21,0c0,0-17.36-7.08-18.38-17.71s0-20.32,0-20.32Z"/>
    <path class="cls-34" d="M716.37,925.43s-6.73,31.35-21.23,34.57c-14.5,3.21-27.97,3.61-36.25-5.02s-13.47-21.9-13.47-21.9c0,0-.52,24.51,17.61,30.38,18.13,5.87,34.7,0,34.7,0,0,0,17.61-7.08,18.64-17.71,1.04-10.63,0-20.32,0-20.32Z"/>
    <path class="cls-34" d="M716.37,915.29s-6.73,31.35-21.23,34.57-27.97,3.61-36.25-5.02c-8.29-8.62-13.47-21.9-13.47-21.9,0,0-.52,24.51,17.61,30.38,18.13,5.87,34.7,0,34.7,0,0,0,17.61-7.08,18.64-17.71,1.04-10.63,0-20.32,0-20.32Z"/>
    <path class="cls-34" d="M716.37,907.63s-6.73,31.35-21.23,34.57c-14.5,3.21-27.97,3.61-36.25-5.02s-13.47-21.9-13.47-21.9c0,0-.52,24.51,17.61,30.38,18.13,5.87,34.7,0,34.7,0,0,0,17.61-7.08,18.64-17.71,1.04-10.63,0-20.32,0-20.32Z"/>
    <ellipse class="cls-36" cx="393.31" cy="991.1" rx="26.29" ry="15.07"/>
    <ellipse class="cls-36" cx="716.83" cy="991.1" rx="26.29" ry="15.07"/>
    <line class="cls-17" x1="729.14" y1="921.56" x2="751.04" y2="921.56"/>
    <line class="cls-17" x1="729.14" y1="927.95" x2="751.04" y2="927.95"/>
    <line class="cls-17" x1="729.14" y1="934.35" x2="751.04" y2="934.35"/>
    <line class="cls-8" x1="727.21" y1="942.62" x2="751.04" y2="942.62"/>
    <path class="cls-25" d="M382.64,863.64s36.27,3.66,53.13-2.04c19.62-6.64,29.09-23.49,29.09-23.49"/>
    <path class="cls-25" d="M710.27,859.13s-36.27,3.66-53.13-2.04c-19.62-6.64-29.09-23.49-29.09-23.49"/>
    <ellipse class="cls-30" cx="399.84" cy="965.56" rx="17.2" ry="6.33"/>
    <ellipse class="cls-30" cx="414.7" cy="966.11" rx="17.2" ry="6.33"/>
    <ellipse class="cls-30" cx="708.07" cy="965.56" rx="17.2" ry="6.33"/>
    <ellipse class="cls-30" cx="694.19" cy="971.21" rx="17.2" ry="6.33"/>
  </g>
</svg>