<svg xmlns="http://www.w3.org/2000/svg" xmlns:xlink="http://www.w3.org/1999/xlink" fill="#000000" version="1.1" id="Layer_1" viewBox="0 0 286.153 286.153" xml:space="preserve">
<g>
	<g>
		<g>
			<rect x="138.462" y="152.307" width="9.231" height="9.231"/>
			<path d="M281.538,138.461V96.922c0-0.452-0.138-10.352-9.231-16.468V69.23h-9.231v11.225c-9.092,6.115-9.231,16.015-9.231,16.468     v41.538h-4.615v-9.231H240v9.231h-9.231v-10.925c2.308-1.717,4.615-5.165,4.615-12.152c0-10.786-8.617-18.822-14.322-24.143     c-1.537-1.431-3.545-3.318-4.14-4.223V69.23h-9.231v17.788c-0.595,0.905-2.608,2.792-4.14,4.223     c-5.705,5.322-14.322,13.357-14.322,24.143c0,6.988,2.308,10.44,4.615,12.152v10.925h-9.231V92.307     c0-0.872-0.291-21.457-25.523-31.795l-11.4-7.597V32.307h-9.231v20.608l-11.4,7.602c-25.232,10.334-25.523,30.918-25.523,31.791     v46.154h-9.231v-10.925c2.308-1.717,4.615-5.165,4.615-12.152c0-10.786-8.617-18.822-14.322-24.143     c-1.537-1.431-3.545-3.318-4.14-4.223V69.23h-9.231v17.788c-0.595,0.905-2.608,2.792-4.14,4.223     c-5.705,5.322-14.322,13.357-14.322,24.143c0,6.988,2.308,10.44,4.615,12.152v10.925h-9.231v-9.231h-9.231v9.231h-4.615V96.922     c0-0.452-0.138-10.352-9.231-16.468V69.23h-9.231v11.225C4.749,86.57,4.61,96.47,4.61,96.923v41.538H0v115.385h101.538h9.231     h64.615h9.231h101.538V138.461H281.538z M13.846,96.923c0-0.056,0.06-5.013,4.611-8.442c4.44,3.365,4.615,8.252,4.62,8.442v4.615     h-9.231V96.923z M13.846,110.768h9.231v27.692h-9.231V110.768z M27.693,244.615H9.231v-18.462h18.462V244.615z M27.693,216.922     H9.231v-69.231h18.462V216.922z M71.386,97.988c0.877-0.822,1.703-1.592,2.46-2.335c0.757,0.743,1.583,1.514,2.46,2.335     c5.072,4.735,11.386,10.625,11.386,17.395c0,2.931-0.545,4.177-0.812,4.615H60.817C60.545,119.56,60,118.313,60,115.383     C60,108.613,66.314,102.724,71.386,97.988z M83.077,129.23v9.231H64.615v-9.231H83.077z M36.921,147.691h64.615v69.231h-9.229     V198.46h-9.231v18.462h-9.231V198.46h-9.231v18.462h-9.231V198.46h-9.231v18.462h-9.231V147.691z M101.538,244.614H36.923     v-18.462h64.615V244.614z M175.384,244.614h-64.615v-18.462h64.615V244.614z M138.462,170.768v46.154h-9.231v-64.615     c0-12.332,10.343-17.017,13.846-18.245c3.517,1.237,13.846,5.922,13.846,18.245v64.615h-9.231v-46.154H138.462z M175.384,138.46     v78.462h-9.231v-64.615c0-17.451-14.363-25.657-21.96-27.554l-1.117-0.282l-1.117,0.286c-7.597,1.892-21.96,10.098-21.96,27.549     v64.615h-9.231v-78.462v-36.922h0.001h64.615V138.46z M110.77,92.307c-0.001-0.153,0.23-15.43,20.173-23.405l12.134-7.971     l11.285,7.523l0.849,0.448c19.495,7.795,20.151,22.523,20.174,23.405H110.77z M209.848,97.988     c0.877-0.822,1.703-1.592,2.46-2.335c0.757,0.743,1.583,1.514,2.46,2.335c5.072,4.735,11.386,10.625,11.386,17.395     c0,2.931-0.545,4.177-0.812,4.615h-26.063c-0.272-0.438-0.817-1.685-0.817-4.615C198.462,108.613,204.775,102.724,209.848,97.988     z M221.539,129.23v9.231h-18.462v-9.231H221.539z M249.23,244.615h-64.615v-18.462h64.615V244.615z M249.231,216.922H240V198.46     h-9.231v18.462h-9.231V198.46h-9.231v18.462h-9.231V198.46h-9.231v18.462h-9.231v-69.231h64.617V216.922z M263.077,96.923     c0-0.056,0.06-5.013,4.611-8.442c4.44,3.365,4.615,8.252,4.62,8.442v4.615h-9.231V96.923z M263.077,110.768h9.231v27.692h-9.231     V110.768z M258.461,147.691h18.462v69.231h-18.462V147.691z M276.924,244.614h-18.462v-18.462h18.462V244.614z"/>
			<rect x="13.846" y="198.461" width="9.231" height="9.231"/>
			<rect x="263.077" y="198.461" width="9.231" height="9.231"/>
		</g>
	</g>
</g>
</svg>